<svg width="29" height="15" viewBox="0 0 29 15" fill="none" xmlns="http://www.w3.org/2000/svg">
<path d="M27.8947 13.5466C27.8607 13.478 27.8291 13.4211 27.7997 13.3755C27.3131 12.554 26.3833 11.5456 25.0109 10.3502L24.9819 10.3228L24.9673 10.3094L24.9527 10.2956H24.9379C24.315 9.73891 23.9206 9.36461 23.7554 9.17298C23.4532 8.80793 23.3854 8.43842 23.5506 8.06402C23.6673 7.78115 24.1057 7.18377 24.8647 6.27105C25.264 5.78734 25.5802 5.39966 25.8137 5.10759C27.4978 3.00858 28.228 1.66729 28.004 1.08319L27.917 0.94669C27.8585 0.864514 27.7076 0.789337 27.4646 0.720777C27.2209 0.65236 26.9095 0.641046 26.5298 0.686641L22.3248 0.713873C22.2567 0.691243 22.1595 0.693352 22.0327 0.720777C21.9062 0.748201 21.8428 0.761961 21.8428 0.761961L21.7697 0.796241L21.7116 0.837425C21.6629 0.864657 21.6093 0.912554 21.5509 0.981019C21.4927 1.04924 21.4441 1.12931 21.4052 1.22055C20.9474 2.32475 20.4269 3.35139 19.8427 4.3004C19.4825 4.86628 19.1518 5.3567 18.8497 5.77195C18.548 6.18705 18.2949 6.49289 18.0907 6.68893C17.8861 6.88517 17.7015 7.04238 17.5357 7.16114C17.3701 7.27994 17.2438 7.33014 17.1563 7.31178C17.0686 7.29341 16.986 7.27519 16.9078 7.25698C16.7716 7.1748 16.662 7.06304 16.5795 6.92161C16.4965 6.78017 16.4407 6.60215 16.4115 6.3877C16.3824 6.1731 16.3652 5.98851 16.3603 5.83332C16.3558 5.67831 16.3579 5.45907 16.3677 5.17619C16.3779 4.89318 16.3824 4.70169 16.3824 4.60129C16.3824 4.25446 16.3896 3.87805 16.4041 3.47196C16.4188 3.06588 16.4307 2.74412 16.4407 2.50709C16.4506 2.26981 16.4552 2.01877 16.4552 1.75412C16.4552 1.48947 16.438 1.28192 16.4041 1.13128C16.3705 0.980826 16.319 0.834788 16.2512 0.693209C16.1829 0.551773 16.083 0.442364 15.9519 0.364694C15.8205 0.287121 15.6571 0.22556 15.4627 0.179821C14.9468 0.0703642 14.2898 0.011153 13.4914 0.00194768C11.681 -0.0162712 10.5177 0.0933293 10.0018 0.330606C9.79739 0.430857 9.61241 0.567834 9.44702 0.741105C9.27176 0.941943 9.24732 1.05154 9.37384 1.06957C9.95797 1.1516 10.3715 1.34784 10.6149 1.65809L10.7026 1.82249C10.7708 1.9411 10.8389 2.1511 10.9071 2.45219C10.9752 2.75328 11.0191 3.08635 11.0384 3.45121C11.087 4.11749 11.087 4.68783 11.0384 5.16229C10.9897 5.63694 10.9437 6.00645 10.8997 6.2711C10.8558 6.53575 10.7901 6.75021 10.7026 6.91441C10.6149 7.07867 10.5565 7.17907 10.5273 7.2155C10.4981 7.25194 10.4737 7.27491 10.4544 7.28392C10.3279 7.32937 10.1963 7.35253 10.0601 7.35253C9.9237 7.35253 9.75832 7.28857 9.56367 7.16075C9.36908 7.03293 9.16713 6.85736 8.95781 6.63375C8.74849 6.41009 8.51243 6.09754 8.24951 5.69605C7.9868 5.29457 7.71422 4.82006 7.43193 4.27254L7.19837 3.87546C7.05236 3.62002 6.85291 3.24806 6.59982 2.75994C6.34657 2.27163 6.12273 1.79928 5.92814 1.343C5.85035 1.15136 5.7335 1.00547 5.57777 0.905075L5.50469 0.86389C5.45611 0.827453 5.37812 0.788761 5.27114 0.747529C5.164 0.706345 5.0522 0.676811 4.93529 0.65864L0.934615 0.685873C0.525797 0.685873 0.248411 0.7727 0.102353 0.946115L0.0438993 1.02815C0.014698 1.07384 -3.05176e-05 1.14681 -3.05176e-05 1.24725C-3.05176e-05 1.34765 0.0291708 1.47087 0.0876245 1.61676C0.67165 2.90359 1.30677 4.14462 1.99297 5.34007C2.67918 6.53551 3.27547 7.49847 3.78151 8.22809C4.28765 8.95823 4.80356 9.64734 5.32923 10.2951C5.85491 10.943 6.20287 11.3583 6.37311 11.5407C6.54356 11.7235 6.67745 11.8601 6.77477 11.9513L7.13986 12.2798C7.37348 12.4989 7.71653 12.7612 8.16917 13.0669C8.62192 13.3727 9.12315 13.6738 9.67311 13.9706C10.2232 14.267 10.8631 14.5088 11.5932 14.6958C12.3233 14.883 13.0338 14.9582 13.725 14.9219H15.4041C15.7447 14.8944 16.0027 14.794 16.178 14.6207L16.2361 14.5521C16.2752 14.4976 16.3118 14.413 16.3455 14.2991C16.3797 14.1851 16.3967 14.0594 16.3967 13.9227C16.3867 13.5304 16.4186 13.1768 16.4914 12.862C16.5642 12.5473 16.6471 12.31 16.7399 12.1502C16.8326 11.9906 16.9372 11.8558 17.0537 11.7466C17.1704 11.6372 17.2535 11.5709 17.3023 11.548C17.3508 11.5251 17.3895 11.5095 17.4187 11.5001C17.6523 11.4272 17.9273 11.4978 18.2439 11.7125C18.5603 11.9269 18.8571 12.1917 19.1347 12.5064C19.4121 12.8214 19.7455 13.1748 20.1347 13.5672C20.5243 13.9596 20.8649 14.2514 21.1568 14.4433L21.4487 14.6076C21.6437 14.7172 21.8967 14.8176 22.2083 14.9088C22.5193 15 22.7918 15.0228 23.0257 14.9772L26.7634 14.9226C27.1331 14.9226 27.4208 14.8652 27.6249 14.7513C27.8293 14.6372 27.9508 14.5116 27.9899 14.3749C28.029 14.2381 28.0311 14.0828 27.9974 13.9092C27.9627 13.7361 27.9286 13.6151 27.8947 13.5466Z" fill="#66C05D"/>
</svg>
